#!OML:ASF E:\acrobat2\Project_11_07_03\Capture day 1\Session 1\Acrobat.ASF
:FULLY-SPECIFIED
:DEGREES
181
root 10.8708 21.4289 16.2148 5.9063 0.294097 6.39367
lowerback -8.64967 -2.92463 -7.60384
upperback -1.66415 -3.15576 -0.98765
thorax 3.46622 -1.64177 2.86337
lowerneck 9.78833 -15.2128 -11.6835
upperneck -0.693851 -21.4003 11.5203
head 0.740851 -10.9614 5.21426
rclavicle -3.47873e-015 9.34288e-015
rhumerus -36.9256 6.39665 -90.6936
rradius 25.1196
rwrist 7.87956
rhand -6.41053 -41.6504
rfingers 7.12502
rthumb 19.4377 -70.6989
lclavicle -3.47873e-015 9.34288e-015
lhumerus -32.0967 4.61215 87.3268
lradius 21.0204
lwrist 1.72083
lhand 0.138756 -14.6095
lfingers 7.12502
lthumb 25.7233 13.6721
rfemur 5.60793 7.87767 8.64341
rtibia -3.65121
rfoot -18.5819 -15.6973
rtoes 16.8257
lfemur 1.85168 -0.58851 -22.4235
ltibia -0.0399714
lfoot -12.2377 -4.36864
ltoes 9.50711
182
root 10.8707 21.4286 16.2172 5.90302 0.283171 6.40084
lowerback -8.65643 -2.91872 -7.58956
upperback -1.65415 -3.14778 -0.996033
thorax 3.4784 -1.63825 2.84712
lowerneck 9.71189 -15.233 -11.6504
upperneck -0.624786 -21.4205 11.4488
head 0.764162 -10.9679 5.17928
rclavicle -2.36057e-015 3.67752e-015
rhumerus -36.9152 6.37 -90.6908
rradius 25.1352
rwrist 7.91003
rhand -6.36143 -41.6508
rfingers 7.12502
rthumb 19.4849 -70.6945
lclavicle -2.36057e-015 3.67752e-015
lhumerus -32.1061 4.58667 87.3323
lradius 21.0758
lwrist 1.72826
lhand 0.121814 -14.6013
lfingers 7.12502
lthumb 25.707 13.6826
rfemur 5.6208 7.87934 8.63357
rtibia -3.65581
rfoot -18.6066 -15.6661
rtoes 16.9921
lfemur 1.87028 -0.565209 -22.4336
ltibia -0.0391935
lfoot -12.2446 -4.35598
ltoes 9.29883
183
root 10.8705 21.4281 16.2198 5.90078 0.266233 6.42644
lowerback -8.66661 -2.91316 -7.59626
upperback -1.64417 -3.13789 -1.0079
thorax 3.49315 -1.63405 2.83899
lowerneck 9.58442 -15.2554 -11.5822
upperneck -0.502467 -21.438 11.3132
head 0.800129 -10.9703 5.11571
rclavicle 3.01283e-016 1.56046e-014
rhumerus -36.9025 6.33097 -90.6798
rradius 25.1483
rwrist 7.94358
rhand -6.28973 -41.6528
rfingers 7.12502
rthumb 19.5538 -70.6895
lclavicle 3.01283e-016 1.56046e-014
lhumerus -32.1085 4.53838 87.3486
lradius 21.1157
lwrist 1.77172
lhand 0.0761681 -14.6109
lfingers 7.12502
lthumb 25.6633 13.6793
rfemur 5.63409 7.88688 8.60032
rtibia -3.66467
rfoot -18.6317 -15.6363
rtoes 17.2311
lfemur 1.88901 -0.542647 -22.4661
ltibia -0.0392824
lfoot -12.2492 -4.34043
ltoes 9.09798
184
root 10.8703 21.4275 16.2225 5.90299 0.244839 6.46273
lowerback -8.65176 -2.90856 -7.62351
upperback -1.65899 -3.13119 -1.01492
thorax 3.46963 -1.6299 2.84881
lowerneck 9.43321 -15.2711 -11.4919
upperneck -0.326321 -21.4447 11.1158
head 0.845408 -10.9656 5.02867
rclavicle 1.8838e-014 -4.17448e-015
rhumerus -36.9271 6.30039 -90.6634
rradius 25.1662
rwrist 7.96628
rhand -6.2152 -41.6545
rfingers 7.12502
rthumb 19.6255 -70.6839
lclavicle 1.8838e-014 -4.17448e-015
lhumerus -32.14 4.45888 87.3855
lradius 21.1353
lwrist 1.85863
lhand -0.0124846 -14.636
lfingers 7.12502
lthumb 25.5784 13.6664
rfemur 5.64239 7.89874 8.55346
rtibia -3.67495
rfoot -18.6478 -15.6152
rtoes 17.4634
lfemur 1.90351 -0.536685 -22.5127
ltibia -0.044763
lfoot -12.2548 -4.32017
ltoes 8.97452
185
root 10.8701 21.4269 16.2253 5.91282 0.221112 6.50077
lowerback -8.63538 -2.90342 -7.6555
upperback -1.68415 -3.12406 -1.02104
thorax 3.43466 -1.62498 2.86263
lowerneck 9.27243 -15.2809 -11.3841
upperneck -0.134714 -21.4413 10.8982
head 0.891654 -10.9554 4.93324
rclavicle 2.11706e-014 -7.25564e-015
rhumerus -36.965 6.28529 -90.6536
rradius 25.184
rwrist 7.96255
rhand -6.16637 -41.6633
rfingers 7.12502
rthumb 19.6724 -70.6879
lclavicle 2.11706e-014 -7.25564e-015
lhumerus -32.1763 4.33178 87.4413
lradius 21.1334
lwrist 1.9866
lhand -0.131427 -14.6581
lfingers 7.12502
lthumb 25.4645 13.6607
rfemur 5.64134 7.91555 8.50384
rtibia -3.68571
rfoot -18.6536 -15.6062
rtoes 17.6483
lfemur 1.90931 -0.553762 -22.563
ltibia -0.0560527
lfoot -12.2663 -4.29357
ltoes 8.97076
186
root 10.8701 21.4264 16.228 5.92746 0.200618 6.53218
lowerback -8.62321 -2.89894 -7.67985
upperback -1.71078 -3.11821 -1.02711
thorax 3.40024 -1.62057 2.87194
lowerneck 9.12707 -15.2849 -11.2811
upperneck 0.0352902 -21.4311 10.7095
head 0.932109 -10.943 4.84921
rclavicle -2.80442e-014 -2.29596e-014
rhumerus -37.0018 6.28395 -90.6568
rradius 25.1935
rwrist 7.93598
rhand -6.15806 -41.6818
rfingers 7.12502
rthumb 19.6804 -70.7056
lclavicle -2.80442e-014 -2.29596e-014
lhumerus -32.2129 4.18637 87.5011
lradius 21.1248
lwrist 2.12403
lhand -0.270356 -14.6507
lfingers 7.12502
lthumb 25.3314 13.687
rfemur 5.63509 7.9304 8.46217
rtibia -3.6971
rfoot -18.6476 -15.607
rtoes 17.7488
lfemur 1.90609 -0.58338 -22.6059
ltibia -0.069122
lfoot -12.2773 -4.26564
ltoes 9.04033
187
root 10.8701 21.426 16.2304 5.94291 0.187711 6.54764
lowerback -8.61126 -2.89744 -7.68607
upperback -1.73587 -3.11798 -1.03044
thorax 3.36739 -1.61887 2.87325
lowerneck 9.01467 -15.2837 -11.2074
upperneck 0.169542 -21.4186 10.5791
head 0.966087 -10.9316 4.7893
rclavicle -4.21486e-014 9.93923e-016
rhumerus -37.0345 6.29813 -90.675
rradius 25.1939
rwrist 7.8989
rhand -6.18551 -41.7015
rfingers 7.12502
rthumb 19.654 -70.7279
lclavicle -4.21486e-014 9.93923e-016
lhumerus -32.254 4.07354 87.5448
lradius 21.1232
lwrist 2.23187
lhand -0.410279 -14.6029
lfingers 7.12502
lthumb 25.1973 13.7538
rfemur 5.62812 7.94671 8.44174
rtibia -3.7083
rfoot -18.6367 -15.6142
rtoes 17.7939
lfemur 1.89865 -0.626398 -22.6293
ltibia -0.0859672
lfoot -12.2837 -4.24097
ltoes 9.24012
